@startuml
'https://plantuml.com/class-diagram

abstract class AbstractKhoa {
    #protected String name
    #protected String children
    +{abstract} void add(AbstractKhoa k)
    +{abstract} void remove(AbstractKhoa k)
    +{abstract} void getgetHierarchy(String s)
}

class GiangVien {
}

class BoMon{
}

AbstractKhoa <|-- GiangVien
AbstractKhoa <|-- BoMon
AbstractKhoa <--* BoMon: children

@enduml