@startuml
'https://plantuml.com/class-diagram

interface IListenerObserver {
    +void listen(PlayerData data)
}

class PlayerData {
    #int thoigian, diem, luotchoi
}

class DashBoard {

}

IListenerObserver <|.. DashBoard
PlayerData --> IListenerObserver:observers
PlayerData <-- DashBoard:data

@enduml